# xmcd CD database file
#
# Track frame offsets:
#	150
#	20205
#	36460
#
# Disc length: 658 seconds
#
# Revision: 0
# Processed by: cddbd v1.5.1PL0 Copyright (c) Steve Scherf et al.
# Submitted via: CDex 1.51
#
DISCID=25029003
DTITLE=PENPALS - DANCE
DYEAR=2003
DGENRE=Rock
TTITLE0=DANCE
TTITLE1=BELIEVE
TTITLE2=CARS(FULL THROTTLE Ver.)
EXTD=YEAR: 2003
EXTT0=
EXTT1=
EXTT2=
PLAYORDER=
